<?xml version="1.0" encoding="utf-8"?>
<!-- Generator: Adobe Illustrator 24.3.0, SVG Export Plug-In . SVG Version: 6.00 Build 0)  -->
<svg version="1.1" id="Layer_1" xmlns="http://www.w3.org/2000/svg" xmlns:xlink="http://www.w3.org/1999/xlink" x="0px" y="0px"
	 viewBox="0 0 400.94 190.59" style="enable-background:new 0 0 400.94 190.59;" xml:space="preserve">
<style type="text/css">
	.st2{fill:rgb(255, 83, 83);}
</style>
<g  class="st2">
	<path d="M145.61,119.77c1.56,0.33,2.76,0.58,4.18,0.87c0.58-1.99,1.13-3.89,1.77-6.07c-0.88-0.3-1.63-0.61-2.41-0.81
		c-6.09-1.54-12.18-3.09-18.28-4.58c-6.54-1.6-8.81-4.13-9.85-10.7c-1.67-10.49-0.55-20.74,2.34-30.87
		c0.64-2.24,1.18-4.52,2.06-6.67c0.84-2.06,1.85-4.13,3.17-5.9c1.58-2.13,3.82-3.05,6.6-2.21c1.4,0.42,2.9,0.49,4.35,0.78
		c5.28,1.05,9.73,3.59,13.4,7.5c2.71,2.89,5.47,5.75,8.08,8.74c1.43,1.64,3.12,2.43,5.24,2.64c4.4,0.44,8.79,0.97,13.19,1.46
		c1.81,0.2,3.53,0.68,4.81,2.07c0.93,1.01,2.03,1.34,3.35,1.23c3.48-0.29,5.76,1.37,7.17,4.45c0.97,2.12,2.05,4.19,3,6.31
		c0.46,1.03,1.13,1.27,2.21,1.21c6.68-0.35,10.92,3.21,11.78,9.84c0.34,2.6-0.29,4.93-2.12,6.89c-0.47,0.5-0.91,1.02-1.23,2.01
		c0.84-0.07,1.71-0.03,2.52-0.22c10.48-2.44,20.1-0.42,28.67,5.95c2.7,2.01,4.82,4.8,7.16,7.28c0.45,0.47,0.67,1.15,1.08,1.89
		c-2.69,0.75-4.94,0.35-7.02-1.06c-8.5-5.74-17.92-6.83-27.46-4.13c-13.12,3.71-23.34,14.61-23.48,29.57
		c-0.02,2.25-0.21,4.51-0.51,6.73c-0.63,4.67-3.81,7.45-8.62,7.47c-11.74,0.06-23.48,0.06-35.23,0.05c-3.52,0-4.54-1.21-4.16-4.8
		c0.55-5.15,0.69-10.39-1.07-15.24c-4.43-12.2-12.17-21.31-25.48-24.12c-5.52-1.17-11.15-0.38-16.64,0.93
		c-5.78,1.38-11.31,3.37-16.26,6.75c-0.31,0.21-0.68,0.32-1.17,0.53c-1.41-2.54-2.42-5.12-2.54-7.94c-0.03-0.76,0.55-1.79,1.18-2.29
		c1.45-1.16,3.06-2.13,4.68-3.05c0.89-0.51,1.15-1.05,1-2.06c-1.04-6.67-2.03-13.35-3.02-20.02c-0.13-0.91-0.16-1.83-0.26-2.98
		c9.19-1.35,18.21-2.67,27.49-4.03c0.98,6.51,1.92,12.77,2.89,19.27c1.07-0.07,2.06-0.04,3.02-0.22c1.15-0.22,1.78,0.27,2.18,1.24
		c0.18,0.43,0.33,0.87,0.49,1.31c1.55,4.2,4.59,6.75,8.85,7.87c5.55,1.45,11.12,2.84,16.69,4.25
		C144.8,117.25,146.2,117.63,145.61,119.77z M159.21,149.32c0.77-1.46,1.58-2.63,2.03-3.92c3.69-10.63,7.34-21.27,10.93-31.93
		c1.48-4.39,0.83-8.57-1.75-12.44c-0.42-0.63-0.79-1.28-1.16-1.88c2.95-3.1,6.96-3.79,10.55-1.93c0.68,0.35,1.4,0.98,2.08,0.95
		c3.34-0.11,6.57,0.36,10.08,1.62c-1.64-3.4-3.03-6.41-4.55-9.35c-0.81-1.56-2.21-2.35-4.03-2.27c-1.01,0.05-2.02,0.08-3.03,0.09
		c-1.7,0.03-3.3-0.36-4.42-1.69c-0.91-1.08-1.98-1.35-3.29-1.26c-3.25,0.21-6.52,0.32-9.77,0.54c-2.64,0.18-4.85-0.72-6.85-2.38
		c-2.33-1.94-4.7-3.83-7.07-5.71c-0.63-0.5-1.34-0.9-2.22-1.49c-0.76,3.22-1.48,6.06-2.08,8.93c-0.38,1.8-1.33,3.98-0.67,5.35
		c0.67,1.39,2.95,2.05,4.59,2.92c5.07,2.71,10.18,5.33,15.23,8.07c3.82,2.08,5.19,4.9,4.27,9.09c-0.63,2.87-1.5,5.69-2.45,8.48
		c-2.76,8.07-5.6,16.12-8.44,24.16c-0.45,1.29-1.08,2.51-1.65,3.83C156.76,147.84,157.81,148.47,159.21,149.32z"/>
	<path d="M11.65,82.75c0.72-0.09,1.25-0.22,1.78-0.22c9.17,0.08,18.34,0.07,27.5,0.32c4.68,0.13,9.2,1.35,13.43,3.46
		c5.61,2.8,9.3,7.11,10.56,13.37c1.36,6.72,0.76,13.13-2.96,19.05c-1.77,2.82-4.09,5.06-6.91,6.81c-0.71,0.45-1.43,0.89-2.09,1.31
		c2.66,1.56,5.38,2.89,7.82,4.62c7.85,5.57,10.57,13.29,9.08,22.64c-1.4,8.8-6.7,14.48-14.67,17.86
		c-5.13,2.18-10.53,3.08-16.14,3.01c-8.24-0.11-16.48-0.03-24.72-0.03c-0.84,0-1.67,0-2.7,0C11.65,144.14,11.65,113.56,11.65,82.75z
		 M24.1,163.43c6.06,0,11.81,0.23,17.52-0.1c2.72-0.15,5.47-1.12,8.04-2.14c3.19-1.26,5.78-3.48,6.78-6.91
		c2.21-7.59,0.17-13.95-7.43-17.04c-2.55-1.03-5.36-1.72-8.1-1.9c-5.11-0.32-10.25-0.16-15.38-0.17c-0.44,0-0.87,0.19-1.43,0.31
		C24.1,144.79,24.1,154,24.1,163.43z M24.14,94.64c0,9.55,0,18.81,0,28.04c0.39,0.14,0.6,0.28,0.81,0.28
		c5.2,0,10.42,0.18,15.61-0.09c4.87-0.25,8.43-2.78,10.54-7.28c4.53-9.65,0.06-18.87-10.35-20.5c-4.48-0.7-9.13-0.34-13.7-0.45
		C26.14,94.63,25.23,94.64,24.14,94.64z"/>
	<path d="M306.65,75.96c3.87,0,7.5,0,11.54,0c0.01,6.3,0.03,12.56,0.03,18.81c0.01,6.22,0,12.44,0,18.66c0,6.28,0,12.56,0,19.39
		c0.62-0.89,0.96-1.35,1.28-1.83c4.52-6.99,11-10.57,19.26-10.8c2.3-0.06,4.7,0.09,6.91,0.68c6.97,1.87,11.43,7.6,11.53,15.16
		c0.18,12.36,0.05,24.72,0.04,37.08c0,0.52-0.15,1.05-0.25,1.7c-3.87,0-7.65,0-11.74,0c-0.04-0.9-0.12-1.8-0.12-2.69
		c-0.01-10.18,0-20.37-0.01-30.55c0-1.16,0.03-2.35-0.18-3.49c-0.88-4.81-4.21-7.65-9.3-7.88c-4.91-0.22-8.93,1.7-12.07,5.46
		c-3.15,3.77-4.83,8.17-4.91,13.06c-0.14,7.69-0.07,15.39-0.09,23.09c0,0.92,0,1.83,0,2.95c-4.07,0-7.91,0-11.94,0
		C306.65,141.91,306.65,109.08,306.65,75.96z"/>
	<path d="M104.98,120.02c10.98-0.05,19.25,3.42,25.04,11.6c10.88,15.36,4.33,40.98-19.19,44.36c-5.41,0.78-10.72,0.44-15.89-1.28
		c-13.06-4.35-19.79-15.98-18.45-29.71C77.96,129.93,91.28,119.45,104.98,120.02z M88.4,148.23c0.23,1.68,0.34,3.4,0.72,5.05
		c1.77,7.63,8.27,13.02,15.95,13.3c7.99,0.29,14.6-4.46,16.95-12.23c1.05-3.49,1.14-7.01,0.45-10.59
		c-1.38-7.17-7.03-12.76-14.18-13.93c-6.89-1.13-13.6,2.21-17.21,8.58C89.35,141.44,88.47,144.7,88.4,148.23z"/>
	<path d="M223.03,119.94c6.39,0.03,12.34,1.53,17.55,5.34c8.53,6.25,11.96,14.92,11.23,25.21c-0.92,12.79-9.4,22.4-21.96,25.1
		c-7.67,1.65-15.22,1.01-22.24-2.66c-8.65-4.53-13.33-11.81-14.24-21.55c-0.7-7.5,0.84-14.39,5.56-20.37
		c5.31-6.72,12.35-10.22,20.85-10.88C220.85,120.04,221.94,120,223.03,119.94z M239.92,148.79c-0.31-2.29-0.43-4-0.8-5.65
		c-1.61-7.16-7.39-12.49-14.41-13.37c-7.11-0.9-13.63,2.59-17.11,9.21c-2.25,4.28-2.76,8.81-1.85,13.56
		c1.39,7.3,7.6,13.22,14.69,13.92c8.29,0.81,15.05-3.15,17.88-10.75C239.2,153.35,239.48,150.77,239.92,148.79z"/>
	<path d="M256.14,168.52c1.31-1.81,2.43-3.38,3.58-4.93c0.4-0.54,0.88-1.04,1.39-1.63c1.27,0.93,2.43,1.83,3.64,2.66
		c4,2.73,8.38,3.91,13.23,3.16c3.99-0.62,6.38-2.59,6.85-5.65c0.49-3.22-0.95-5.71-4.71-7.46c-2.24-1.04-4.68-1.65-6.98-2.57
		c-2.59-1.03-5.27-1.95-7.65-3.35c-10.08-5.97-8.37-18.97-1.23-24.53c2.84-2.21,6.08-3.38,9.63-3.77c5.42-0.6,10.72-0.12,15.78,1.99
		c1.9,0.79,3.64,1.99,5.71,3.15c-1.57,2.48-2.96,4.68-4.17,6.6c-3.07-1.28-5.84-2.66-8.75-3.57c-2.72-0.85-5.55-0.57-8.17,0.72
		c-4.69,2.32-5.1,7.81-0.73,10.69c1.28,0.85,2.74,1.45,4.19,2.01c1.95,0.75,3.99,1.3,5.95,2.04c1.74,0.66,3.46,1.39,5.13,2.22
		c7.61,3.8,9.31,9.86,7.12,17.59c-1.61,5.69-5.58,9.36-11.1,11.03c-9.15,2.76-17.82,1.45-25.78-3.96
		C258.09,170.29,257.27,169.46,256.14,168.52z"/>
	<path d="M161.06,39.26c-1.83-0.69-3.55-1.36-5.29-2c-1.95-0.73-2.28-0.65-3.5,1.04c-0.45,0.62-0.88,1.3-1.12,2.02
		c-1,3,1.13,5.67,4.33,5.51c2.89-0.14,3.22-0.06,5.55,1.43c-0.89,1.88-1.7,3.87-2.76,5.72c-0.95,1.67-2.1,1.94-4.23,1.28
		c-3.7-1.15-7.34-2.56-11.1-3.48c-4.05-1-8.21-1.61-12.33-2.28c-1.6-0.26-2.78-0.91-3.37-2.45c-4.25-10.88,2.92-22.28,12.41-23.68
		c7.44-1.11,18.02,1.2,22.29,11.44C162.71,35.66,162.67,37.41,161.06,39.26z"/>
	<path d="M382.89,122.1c0,17.74,0,35.11,0,52.67c-3.92,0-7.75,0-11.8,0c-0.06-0.77-0.16-1.52-0.16-2.28
		c-0.01-15.93-0.01-31.86,0-47.79c0-2.58,0.02-2.59,2.59-2.6C376.53,122.1,379.55,122.1,382.89,122.1z"/>
	<path d="M78.62,85.87c-0.46-3.12-0.87-5.87-1.34-8.98c10.92-2.06,21.83-3.62,33.1-4.98c0.46,3.11,0.88,5.97,1.35,9.09
		C100.62,82.63,89.78,84.23,78.62,85.87z"/>
	<path d="M377.43,95.8c3.78,0,7.04,3.07,7.01,6.61c-0.03,3.58-3.27,6.56-7.09,6.52c-3.87-0.05-7.06-3.04-7.03-6.59
		C370.35,98.83,373.64,95.8,377.43,95.8z"/>
</g>
</svg>
