<?xml version="1.0" encoding="utf-8"?>
<!-- Generator: Adobe Illustrator 24.3.0, SVG Export Plug-In . SVG Version: 6.00 Build 0)  -->
<svg version="1.1" xmlns="http://www.w3.org/2000/svg" xmlns:xlink="http://www.w3.org/1999/xlink" x="0px" y="0px"
	 viewBox="0 0 750 500" style="enable-background:new 0 0 750 500;" xml:space="preserve">
<style type="text/css">
	.st0{fill:#FFFFFF;}
	.st1{fill:#E7FAF9;}
	.st2{fill:#FBEED1;}
	.st3{fill:#6CA8BC;}
	.st4{fill:#EBA58E;}
	.st5{fill:#DD8C76;}
	.st6{fill:#5297F4;}
	.st7{fill:#3985D8;}
	.st8{fill:#5DABFF;}
	.st9{fill:#422C4F;}
	.st10{fill:#A34262;}
	.st11{fill:#DF4268;}
	.st12{fill:#495375;}
	.st13{fill:#C7D2D7;}
	.st14{fill:#99A3B0;}
	.st15{fill:#F2C8C2;}
	.st16{fill:#E36E90;}
	.st17{fill:#F0BF6C;}
	.st18{fill:#EBA25D;}
	.st19{fill:#454F6B;}
	.st20{fill:#F2C9AD;}
	.st21{fill:#81D3CF;}
	.st22{opacity:0.3;fill:#422C4F;}
	.st23{fill:#6BC5FF;}
	.st24{fill:url(#SVGID_1_);}
	.st25{fill:url(#SVGID_2_);}
	.st26{fill:url(#SVGID_3_);}
	.st27{fill:url(#SVGID_4_);}
	.st28{fill:url(#SVGID_5_);}
	.st29{fill:url(#SVGID_6_);}
	.st30{fill:url(#SVGID_7_);}
	.st31{fill:url(#SVGID_8_);}
	.st32{fill:url(#SVGID_9_);}
	.st33{fill:url(#SVGID_10_);}
	.st34{fill:url(#SVGID_11_);}
	.st35{fill:url(#SVGID_12_);}
	.st36{fill:url(#SVGID_13_);}
</style>
<g id="OBJECT">
	<g>
		<path class="st1" d="M668.93,407.64H67.23c-8.47-10.59,0.81-29.75,11.78-37.74c10.96-7.99,24.79-12.19,33.83-22.3
			c14.17-15.83,11.84-39.83,10.52-61.04c-1.32-21.21,1.6-46.67,20.38-56.61c17.32-9.17,39.15,0.05,57.94-5.52
			c18.57-5.5,29.77-23.69,41.14-39.36c37.98-52.36,96.29-89.56,159.77-101.94c27.34-5.33,56.51-6.04,82.2,4.71
			s47.04,34.82,48.53,62.63c1.05,19.67-7.46,38.42-11.77,57.64c-4.31,19.22-2.99,42.47,12.66,54.43
			c12.68,9.68,30.14,8.6,45.96,10.63c15.82,2.02,33.98,11.19,34.44,27.14c0.5,17.3-20.71,31.21-16.36,47.96
			c2.66,10.24,13.92,15.69,24.34,17.53c10.41,1.84,21.48,1.53,30.95,6.24C663.01,376.72,674.95,398.94,668.93,407.64z"/>
		<g>
			<path class="st2" d="M259.88,131.84H102.3c-1.55-3.96,1.81-8.35,5.73-10.01c3.92-1.66,8.37-1.23,12.61-0.87
				c4.24,0.36,8.75,0.57,12.51-1.43c7.26-3.88,8.24-13.61,11.54-21.15c4.94-11.29,17.21-18.94,29.52-18.41
				c12.31,0.53,23.88,9.19,27.84,20.86c2.04,6.02,2.46,13.07,7.09,17.42c4.87,4.58,12.56,4.28,19,2.51
				c6.45-1.77,12.75-4.73,19.43-4.55C254.25,116.39,260.33,125.17,259.88,131.84z"/>
			<path class="st2" d="M485.48,59.68H341.43c3.23-7.47,9.66-14.09,17.36-16.74c7.7-2.65,16.49-1.92,23.64,1.98
				c4.39,2.39,8.35,5.97,13.3,6.71c7.79,1.16,14.49-4.94,21.07-9.26c11.19-7.32,25.25-10.13,38.39-7.66
				C468.33,37.17,477.71,48.79,485.48,59.68z"/>
			<path class="st2" d="M677.98,130.68h-134.5c0.46-4.34,3.28-9.42,6.81-11.98c3.53-2.56,8.17-3.53,12.43-2.61
				c3.33,0.72,6.39,2.51,9.78,2.84c5.32,0.52,10.32-2.68,14.13-6.43c3.81-3.75,6.96-8.22,11.3-11.35
				c5.67-4.09,13.16-5.53,19.94-3.83c6.78,1.7,12.71,6.51,15.77,12.8c1.31,2.7,2.12,5.63,3.48,8.3c1.37,2.67,3.47,5.18,6.35,6.04
				c4.8,1.43,9.52-2.05,14.33-3.41C665.16,118.97,674.23,124.01,677.98,130.68z"/>
		</g>
	</g>
	<ellipse class="st3" cx="366.26" cy="458.68" rx="223.12" ry="7.5"/>
	<g>
		<g>
			<path class="st4" d="M261.71,220.05h-14.16c-2.64,0-4.77,2.14-4.77,4.77v8.85c0,2.64,2.14,4.77,4.77,4.77h11.46v-3.52l0,0
				c3.45,0,6.77-1.37,9.21-3.81l1.72-1.72L261.71,220.05z"/>
			<polygon class="st4" points="261.71,220.05 269.94,229.38 305.3,221.16 300.41,208.09 			"/>
			<polygon class="st5" points="300.41,208.09 298.68,208.62 298.12,222.83 305.3,221.16 			"/>
			<path class="st6" d="M368.09,157.5L368.09,157.5c-4.66-3.66-11.38-3-15.25,1.48l-36.67,42.54l-6.63,2.23l6.16,16.47l3.48-0.75
				c5.5-1.19,10.52-4.01,14.4-8.09l35.7-37.51C373.79,169.13,373.24,161.54,368.09,157.5z"/>
			<path class="st7" d="M315.9,220.75l-0.2-0.52l-6.16-16.47l-0.61-1.63c-0.35-0.93-1.39-1.41-2.32-1.06l-6.06,2.27
				c-0.93,0.35-1.41,1.39-1.06,2.32l0.49,1.32l5.76,15.4l0.71,1.9c0.35,0.93,1.39,1.41,2.32,1.06l6.06-2.27
				C315.78,222.72,316.25,221.68,315.9,220.75z"/>
			<path class="st8" d="M355.17,160.76c3.41-3.96,9.11-5.02,13.71-2.57c-0.25-0.24-0.51-0.47-0.79-0.69h0
				c-4.66-3.66-11.38-3-15.25,1.48l-36.67,42.54l-6.63,2.23l0.99,2.64l7.44-2.51L355.17,160.76z"/>
		</g>
		<g>
			<path class="st9" d="M355.33,246.01l-76.43,20.34c-13.21,3.52-19.38,18.71-12.34,30.44l44.55,74.29l24.81-11.01l-35.65-67.79
				l72.6-15.17c14.04-2.94,22.32-17.54,17.61-31.1l0,0H355.33z"/>
			<g>
				<path class="st4" d="M332.71,365.14l-1.86-2.82l-14.1,6.25l3.32,6.04l15.71-4.41C334.81,368.49,333.8,366.79,332.71,365.14z"/>
				<path class="st0" d="M328.83,377.31l-1.31,3.34l1.75-1.23c0.69-0.49,1.52-0.75,2.37-0.75h8.23c-1.2-2.9-2.56-5.72-4.1-8.46
					l-15.71,4.41l0.95,1.73h7.16C328.67,376.35,329.01,376.85,328.83,377.31z"/>
				<path class="st9" d="M310.77,391.7h33.3l-0.61-2.35c-0.94-3.65-2.15-7.21-3.59-10.68h-8.23c-0.85,0-1.68,0.26-2.37,0.75
					l-1.75,1.23l1.31-3.34c0.18-0.46-0.16-0.96-0.66-0.96h-7.16l-5.29,4.97c-2.4,2.25-5.56,3.51-8.85,3.51h-3.61
					c-3.53,0-6.61,1.97-8.2,4.88l6.87,1.22C304.85,391.44,307.81,391.7,310.77,391.7z"/>
				<path class="st0" d="M310.77,391.7c-2.96,0-5.91-0.26-8.83-0.78l-6.87-1.22c-0.67,1.23-1.08,2.64-1.14,4.13l10.49,0.95
					c1.66,0.15,3.32,0.23,4.99,0.23h35.5l-0.85-3.31H310.77z"/>
				<polygon class="st9" points="330.84,362.33 316.75,368.58 318.27,371.35 333.62,366.56 				"/>
			</g>
		</g>
	</g>
	<g>
		<g>
			<path class="st10" d="M237.41,239.17h-3.61l-9.29,32.85c-7.27,25.72-4.32,53.22,8.17,76.79l4.53,1.71L237.41,239.17z"/>
			<path class="st11" d="M224.51,272.02l9.29-32.85h-3.38l-19.06,70.75c-1.72,6.37-7.49,10.8-14.09,10.8c-0.5,0-0.9,0.4-0.9,0.9
				v13.5l36.32,13.69C220.19,325.25,217.24,297.74,224.51,272.02z"/>
		</g>
		<g>
			<circle class="st9" cx="193.88" cy="406.18" r="50.74"/>
			<circle class="st12" cx="193.88" cy="406.18" r="36.54"/>
			<circle class="st13" cx="193.88" cy="406.18" r="29.83"/>
			<path class="st14" d="M193.88,376.35c-5.63,0-10.9,1.56-15.4,4.28c2.07-0.52,4.25-0.81,6.48-0.81c14.56,0,26.36,11.8,26.36,26.36
				c0,14.56-11.8,26.36-26.36,26.36c-2.24,0-4.41-0.28-6.48-0.81c4.49,2.71,9.76,4.28,15.4,4.28c16.48,0,29.83-13.36,29.83-29.83
				C223.71,389.7,210.35,376.35,193.88,376.35z"/>
			<circle class="st14" cx="193.88" cy="406.18" r="13.16"/>
			
				<ellipse transform="matrix(0.7071 -0.7071 0.7071 0.7071 -230.4275 256.0603)" class="st10" cx="193.88" cy="406.18" rx="8.91" ry="8.91"/>
		</g>
		<g>
			<circle class="st9" cx="454.53" cy="406.18" r="50.74"/>
			<circle class="st12" cx="454.53" cy="406.18" r="36.54"/>
			<circle class="st13" cx="454.53" cy="406.18" r="29.83"/>
			<path class="st14" d="M454.53,376.35c-5.63,0-10.9,1.56-15.4,4.28c2.07-0.52,4.25-0.81,6.48-0.81c14.56,0,26.36,11.8,26.36,26.36
				c0,14.56-11.8,26.36-26.36,26.36c-2.24,0-4.41-0.28-6.48-0.81c4.49,2.71,9.76,4.28,15.4,4.28c16.48,0,29.83-13.36,29.83-29.83
				C484.36,389.7,471,376.35,454.53,376.35z"/>
			<circle class="st14" cx="454.53" cy="406.18" r="13.16"/>
			
				<ellipse transform="matrix(0.7071 -0.7071 0.7071 0.7071 -154.0849 440.3677)" class="st10" cx="454.53" cy="406.18" rx="8.91" ry="8.91"/>
		</g>
		<g>
			<g>
				<path class="st0" d="M196.32,338.97c26.14,0.82,48.49,19.12,55.44,44.32l1.13,4.1l1.23,0.6l-2.36-8.54
					c-6.95-25.21-29.31-43.5-55.44-44.32c-0.67-0.02-1.35-0.03-2.03-0.03c-11.25,0-22.04,2.93-31.53,8.41l1.73,2.88
					c9.06-4.86,19.23-7.45,29.8-7.45C194.97,338.94,195.65,338.95,196.32,338.97z"/>
				<path class="st15" d="M201.1,361.93l51.8,25.46l-1.13-4.1c-6.95-25.21-29.31-43.5-55.44-44.32c-0.67-0.02-1.35-0.03-2.03-0.03
					c-10.57,0-20.74,2.59-29.8,7.45l9.3,15.54H201.1z"/>
			</g>
			<path class="st11" d="M256.58,391.84h-24.21c-10.88,0-21.32-4.32-29.02-12.02l0,0c-7.7-7.7-18.14-12.02-29.02-12.02h-28.71
				l9.08-9.08c10.5-10.5,24.74-16.4,39.59-16.4h0c19.13,0,36.93,9.76,47.22,25.89L256.58,391.84z"/>
		</g>
		<path class="st11" d="M237.41,239.17l-9.29,32.85c-7.45,26.34-4.18,54.56,9.09,78.5l4.64,8.37
			c13.13,23.68,38.07,38.38,65.15,38.38h228.56l-8.19-29.72c-8.08-29.32-26.93-54.5-52.79-70.5l-14.8-9.16H332.63v5.55
			c0,3.69,2.35,6.97,5.85,8.14l0,0c13.6,4.58,23.37,16.57,25.11,30.82l0,0c2.72,22.23-14.63,41.83-37.03,41.83h-18.59
			c-17.82,0-34.41-9.11-43.96-24.16l-8.62-13.57c-9.51-14.97-12.76-33.07-9.06-50.41l10.01-46.92H237.41z"/>
		<path class="st9" d="M459.78,287.89H322.35v-16.31h109.58c7.62,0,14.92,3.08,20.24,8.53L459.78,287.89z"/>
		<g>
			<path class="st15" d="M379.88,399.52h-61.7c-27.89,0-53.61-15.15-67.12-39.54l-4.64-8.37c-13.65-24.63-16.95-53.11-9.29-80.2
				c2.46-8.72,1.32-18.24-3.14-26.12c-0.61-1.08-0.23-2.46,0.85-3.07c1.09-0.61,2.46-0.23,3.07,0.85c5.05,8.93,6.34,19.7,3.55,29.57
				c-7.33,25.94-4.18,53.21,8.89,76.79l4.64,8.37c12.72,22.96,36.93,37.22,63.18,37.22h61.7c1.25,0,2.26,1.01,2.26,2.26
				S381.13,399.52,379.88,399.52z"/>
		</g>
		<path class="st10" d="M382.12,388.44h141.37l-2.16,2.16c-3.46,3.46-8.15,5.4-13.04,5.4H397.01
			C391.12,396,385.59,393.19,382.12,388.44L382.12,388.44z"/>
		<g>
			<circle class="st14" cx="443.86" cy="381.09" r="30.58"/>
			<g>
				<path class="st12" d="M443.86,404.61c-12.97,0-23.52-10.55-23.52-23.52s10.55-23.52,23.52-23.52
					c12.97,0,23.52,10.55,23.52,23.52S456.82,404.61,443.86,404.61z M443.86,360.07c-11.59,0-21.02,9.43-21.02,21.02
					s9.43,21.02,21.02,21.02s21.02-9.43,21.02-21.02S455.44,360.07,443.86,360.07z"/>
			</g>
			<g>
				<g>
					<path class="st12" d="M459.13,382.34h-30.54c-0.69,0-1.25-0.56-1.25-1.25s0.56-1.25,1.25-1.25h30.54
						c0.69,0,1.25,0.56,1.25,1.25S459.82,382.34,459.13,382.34z"/>
				</g>
				<g>
					<path class="st12" d="M456.5,377.34h-25.29c-0.69,0-1.25-0.56-1.25-1.25c0-0.69,0.56-1.25,1.25-1.25h25.29
						c0.69,0,1.25,0.56,1.25,1.25C457.75,376.78,457.19,377.34,456.5,377.34z"/>
				</g>
				<g>
					<path class="st12" d="M452.97,372.33h-18.22c-0.69,0-1.25-0.56-1.25-1.25c0-0.69,0.56-1.25,1.25-1.25h18.22
						c0.69,0,1.25,0.56,1.25,1.25C454.22,371.77,453.66,372.33,452.97,372.33z"/>
				</g>
				<g>
					<path class="st12" d="M448.76,367.33h-9.82c-0.69,0-1.25-0.56-1.25-1.25c0-0.69,0.56-1.25,1.25-1.25h9.82
						c0.69,0,1.25,0.56,1.25,1.25C450.02,366.77,449.46,367.33,448.76,367.33z"/>
				</g>
				<g>
					<path class="st12" d="M456.5,387.35h-25.29c-0.69,0-1.25-0.56-1.25-1.25c0-0.69,0.56-1.25,1.25-1.25h25.29
						c0.69,0,1.25,0.56,1.25,1.25C457.75,386.78,457.19,387.35,456.5,387.35z"/>
				</g>
				<g>
					<path class="st12" d="M452.97,392.35h-18.22c-0.69,0-1.25-0.56-1.25-1.25c0-0.69,0.56-1.25,1.25-1.25h18.22
						c0.69,0,1.25,0.56,1.25,1.25C454.22,391.79,453.66,392.35,452.97,392.35z"/>
				</g>
				<g>
					<path class="st12" d="M448.76,397.35h-9.82c-0.69,0-1.25-0.56-1.25-1.25c0-0.69,0.56-1.25,1.25-1.25h9.82
						c0.69,0,1.25,0.56,1.25,1.25C450.02,396.79,449.46,397.35,448.76,397.35z"/>
				</g>
			</g>
		</g>
		<g>
			<path class="st16" d="M476.86,314.86L476.86,314.86c-14.55-8.84-31.25-13.52-48.27-13.52h-5.71c-29,0-53.59,23.72-53.57,52.72
				c0.01,13.14,4.84,25.15,12.81,34.37h39.88h39.88h61.62l-5.42-19.28C511.7,346.49,496.97,327.09,476.86,314.86z"/>
			<path class="st11" d="M468.7,334.56L468.7,334.56c-10.65-6.47-22.88-9.9-35.35-9.9h-4.18c-21.24,0-39.24,17.37-39.23,38.61
				c0.01,9.62,3.54,18.42,9.38,25.17h29.2h29.2h45.12l-3.97-14.12C494.22,357.72,483.43,343.51,468.7,334.56z"/>
		</g>
		<g>
			<g>
				<path class="st12" d="M469.35,380.65h-47.59c-0.75,0-1.35-0.61-1.35-1.35s0.61-1.35,1.35-1.35h47.59c0.75,0,1.35,0.61,1.35,1.35
					S470.1,380.65,469.35,380.65z"/>
			</g>
			<g>
				<path class="st12" d="M467.88,375.29H420.3c-0.75,0-1.35-0.61-1.35-1.35c0-0.75,0.61-1.35,1.35-1.35h47.59
					c0.75,0,1.35,0.61,1.35,1.35C469.24,374.68,468.63,375.29,467.88,375.29z"/>
			</g>
			<g>
				<path class="st12" d="M466.42,369.93h-47.59c-0.75,0-1.35-0.61-1.35-1.35c0-0.75,0.61-1.35,1.35-1.35h47.59
					c0.75,0,1.35,0.61,1.35,1.35C467.77,369.33,467.17,369.93,466.42,369.93z"/>
			</g>
			<g>
				<path class="st12" d="M464.95,364.58h-47.59c-0.75,0-1.35-0.61-1.35-1.35s0.61-1.35,1.35-1.35h47.59c0.75,0,1.35,0.61,1.35,1.35
					S465.7,364.58,464.95,364.58z"/>
			</g>
			<g>
				<path class="st12" d="M463.49,359.22H415.9c-0.75,0-1.35-0.61-1.35-1.35c0-0.75,0.61-1.35,1.35-1.35h47.59
					c0.75,0,1.35,0.61,1.35,1.35C464.84,358.61,464.23,359.22,463.49,359.22z"/>
			</g>
		</g>
		<path class="st10" d="M332.63,287.89h127.15l0,0c-2.81,2.81-6.63,4.4-10.61,4.4H344.4C340.07,292.28,335.89,290.72,332.63,287.89
			L332.63,287.89z"/>
		<path class="st11" d="M256.35,239.17h-25.94h-11.95v-24.28h8.23c7.06,0,14.03,1.55,20.43,4.53l6.09,2.84
			c3.91,1.82,5.96,6.18,4.86,10.36L256.35,239.17z"/>
		<g>
			<rect x="214.48" y="214.89" class="st15" width="3.98" height="24.28"/>
			<rect x="212.45" y="214.89" class="st0" width="2.03" height="24.28"/>
		</g>
		<g>
			<g>
				<path class="st13" d="M519.67,284.41c0.53-0.53,0.53-1.39,0-1.91c-0.53-0.53-1.38-0.53-1.91,0l-11.33,11.33h3.83L519.67,284.41z
					"/>
				<path class="st0" d="M506.43,293.83l-18.36,18.36c-0.53,0.53-0.53,1.38,0,1.91c0.26,0.26,0.61,0.4,0.96,0.4
					c0.35,0,0.69-0.13,0.96-0.4l20.27-20.27H506.43z"/>
			</g>
			<g>
				<path class="st0" d="M451,298.97h-76.26c-1.25,0-2.26-1.01-2.26-2.26c0-1.25,1.01-2.26,2.26-2.26H451
					c5.45,0,10.57-2.12,14.42-5.97c4.7-4.7,10.96-7.29,17.61-7.29h74.18c1.25,0,2.26,1.01,2.26,2.26s-1.01,2.26-2.26,2.26h-74.18
					c-5.45,0-10.57,2.12-14.42,5.97C463.9,296.38,457.65,298.97,451,298.97z"/>
			</g>
		</g>
	</g>
	<polygon class="st10" points="237.41,239.17 256.35,239.17 255.91,241.22 236.83,241.22 	"/>
	<rect x="456.03" y="182.57" class="st17" width="133.35" height="98.63"/>
	<rect x="452.21" y="166.47" class="st17" width="140.98" height="16.09"/>
	<rect x="456.03" y="182.57" class="st18" width="133.35" height="7.82"/>
	<g>
		<g>
			<path class="st19" d="M355.33,246.01l-63.74,19.05c-14.1,4.21-20.45,20.59-12.88,33.21l43.67,72.81l24.81-11.01l-35.65-67.79
				l72.6-15.17c14.04-2.94,22.32-17.54,17.61-31.1l0,0H355.33z"/>
			<g>
				<path class="st20" d="M343.97,365.14l-1.86-2.82l-14.1,6.25l3.32,6.04l15.71-4.41C346.08,368.49,345.06,366.79,343.97,365.14z"
					/>
				<path class="st0" d="M340.09,377.31l-1.31,3.34l1.75-1.23c0.69-0.49,1.52-0.75,2.37-0.75h8.23c-1.2-2.9-2.56-5.72-4.1-8.46
					l-15.71,4.41l0.95,1.73h7.16C339.93,376.35,340.27,376.85,340.09,377.31z"/>
				<path class="st9" d="M322.03,391.7h33.3l-0.61-2.35c-0.94-3.65-2.15-7.21-3.59-10.68h-8.23c-0.85,0-1.68,0.26-2.37,0.75
					l-1.75,1.23l1.31-3.34c0.18-0.46-0.16-0.96-0.66-0.96h-7.16l-5.29,4.97c-2.4,2.25-5.56,3.51-8.85,3.51h-3.61
					c-3.53,0-6.61,1.97-8.2,4.88l6.87,1.22C316.12,391.44,319.07,391.7,322.03,391.7z"/>
				<path class="st0" d="M322.03,391.7c-2.96,0-5.91-0.26-8.83-0.78l-6.87-1.22c-0.67,1.23-1.08,2.64-1.14,4.13l10.49,0.95
					c1.66,0.15,3.32,0.23,4.99,0.23h35.5l-0.85-3.31H322.03z"/>
				<polygon class="st9" points="342.11,362.33 328.01,368.58 329.53,371.35 344.88,366.56 				"/>
			</g>
		</g>
		<g>
			<path class="st20" d="M341.19,133.24l-1.93-10.95c-0.65-3.66-3.83-6.34-7.55-6.34h-10.98l0.98,5.2c0.71,3.76,0.64,7.63-0.2,11.37
				l-0.48,2.12c-0.2,0.9,0.48,1.76,1.4,1.76h2.22c2.84,10.26,15.31,14.64,23.97,7.98l13.62-10.46l-7.23,5.05
				C349.69,142.69,342.31,139.63,341.19,133.24z"/>
			<path class="st4" d="M320.02,112.21l0.71,3.75l0,0h10.98c3.72,0,6.91,2.67,7.55,6.34l1.93,10.95c1.13,6.39,8.5,9.45,13.82,5.74
				l7.23-5.05l0,0l0,0v-21.72H320.02z"/>
			<g>
				<polygon class="st9" points="362.24,133.93 348.62,144.39 350.43,149.59 362.24,133.93 				"/>
				<polygon class="st20" points="371.78,148.38 362.24,133.93 350.43,149.59 353.52,158.46 				"/>
			</g>
			<path class="st9" d="M328.92,124.6c0.21,1.25-0.17,2.36-0.85,2.47c-0.68,0.11-1.39-0.81-1.6-2.07c-0.21-1.25,0.17-2.36,0.85-2.47
				C327.99,122.42,328.71,123.34,328.92,124.6z"/>
			<g>
				<path class="st9" d="M325.69,120.19c1.13-0.64,2.4-0.55,3.47,0.16c1.06,0.7,2.04-1,0.99-1.7c-1.65-1.09-3.75-1.13-5.46-0.16
					C323.59,119.11,324.58,120.81,325.69,120.19L325.69,120.19z"/>
			</g>
			<g>
				<g>
					<path class="st0" d="M328.36,132.25l2.2,0.76c3.22,1.11,6.71,1.22,9.99,0.3l5.49-1.55l-1.29-2.57l-4.2,1.17
						c-3.28,0.91-6.77,0.81-9.99-0.3l-2.2-0.76c-1.95-0.67-3.94-1.19-5.97-1.54l-0.79-0.14l-0.72,2.86l1.51,0.23
						C324.42,131.06,326.41,131.58,328.36,132.25z"/>
					<path class="st21" d="M346.05,131.76l-5.49,1.55c-3.28,0.91-6.77,0.81-9.99-0.3l-2.2-0.76c-1.95-0.67-3.94-1.19-5.97-1.54
						l-1.51-0.23l-0.24,0.94c-0.41,1.64-0.32,3.36,0.25,4.94l1.23,3.4c2.16,5.96,7.68,10.06,14.01,10.41h0
						c3.94,0.22,7.83-1.05,10.89-3.55l4.58-3.74L346.05,131.76z"/>
				</g>
				<path class="st22" d="M340.67,130.32l0.51,2.92c0.82,4.68,5,7.56,9.26,7.31l-5.69-11.37L340.67,130.32z"/>
			</g>
			<g>
				<path class="st19" d="M348.62,136.33l-4.16,11.85c-0.14,0.39,0.18,0.79,0.6,0.74l0,0c3.11-0.37,5.86-2.19,7.43-4.9l5.28-9.15
					L348.62,136.33z"/>
				<g>
					<path class="st11" d="M344.55,118.21l2.29,12.99c0.39,2.22,2.7,3.54,4.81,2.76l22.59-8.36v-16.17
						c0-16.61-13.47-30.08-30.08-30.08l0,0c-16.31,0-29.57,12.98-30.05,29.17H333C338.69,108.52,343.56,112.61,344.55,118.21z"/>
					<g>
						<g>
							<path class="st0" d="M362.84,103.77c-1.46,0-2.88-0.79-3.6-2.18c-2.95-5.65-8.73-9.16-15.08-9.16
								c-2.24,0-4.06-1.82-4.06-4.06c0-2.24,1.82-4.06,4.06-4.06c9.38,0,17.92,5.18,22.27,13.52c1.04,1.99,0.27,4.44-1.72,5.48
								C364.12,103.62,363.48,103.77,362.84,103.77z"/>
						</g>
						<g>
							<path class="st0" d="M331.74,96.44c-1.25,0-2.49-0.58-3.28-1.66c-1.32-1.81-0.93-4.35,0.88-5.67l0.19-0.14
								c1.82-1.31,4.36-0.89,5.66,0.94c1.31,1.82,0.89,4.36-0.93,5.66l-0.13,0.09C333.41,96.19,332.57,96.44,331.74,96.44z"/>
						</g>
					</g>
					<path class="st10" d="M351.65,133.96c-2.11,0.78-4.42-0.54-4.81-2.76l-2.29-12.99c-0.99-5.6-5.86-9.69-11.55-9.69h-18.9
						c-0.01,0.3-0.02,0.6-0.02,0.91v2.78H332c4.38,0,8.12,3.14,8.88,7.45l2.28,12.89c0.81,4.6,5.72,7.23,10.01,5.35l18.92-8.3
						c1.31-0.58,2.16-1.87,2.16-3.3v-0.71L351.65,133.96z"/>
				</g>
			</g>
		</g>
		<g>
			<g>
				<path class="st8" d="M349.8,239.08l5.53-24.19l-7.94-43.5c-0.95-5.18,1.52-10.38,6.13-12.93l18.25-10.08
					c2.39-1.32,5.35-1.02,7.42,0.76v0c15.04,12.89,24.45,31.14,26.22,50.87l3.44,38.22c0.38,4.18-2.92,7.79-7.12,7.79l0,0h-46.41
					l0,0C351.69,246.01,348.99,242.63,349.8,239.08z"/>
				<path class="st6" d="M377.33,166.46l0.15,0.59c1.92,7.39,0.51,15.25-3.85,21.52l-18.3,26.32l-3.72-20.39L377.33,166.46z"/>
			</g>
			<g>
				<g>
					<polygon class="st8" points="351.81,153.55 346.8,156.14 351.81,161.55 353.52,158.46 					"/>
					<polygon class="st6" points="346.8,156.14 345.66,165.39 350.83,160.49 					"/>
				</g>
				<polygon class="st23" points="374.73,147.56 369.41,142.87 350.43,153.25 353.03,164.22 				"/>
			</g>
		</g>
		<g>
			<g>
				<path class="st20" d="M267.56,224.57h-14.16c-2.64,0-4.77,2.14-4.77,4.77v8.85c0,2.64,2.14,4.77,4.77,4.77h11.46v-3.52l0,0
					c3.45,0,6.77-1.37,9.21-3.81l1.72-1.72L267.56,224.57z"/>
				<polygon class="st20" points="267.56,224.57 275.8,233.91 311.15,225.69 306.26,212.61 				"/>
				<polygon class="st4" points="306.26,212.61 304.53,213.14 303.97,227.36 311.15,225.69 				"/>
				<path class="st8" d="M373.95,162.03L373.95,162.03c-4.66-3.66-11.38-3-15.25,1.48l-36.67,42.54l-6.63,2.23l6.16,16.47l3.48-0.75
					c5.5-1.19,10.52-4.01,14.4-8.09l35.7-37.51C379.65,173.66,379.09,166.07,373.95,162.03z"/>
				<path class="st6" d="M321.75,225.27l-0.2-0.52l-6.16-16.47l-0.61-1.63c-0.35-0.93-1.39-1.41-2.32-1.06l-6.06,2.27
					c-0.93,0.35-1.41,1.39-1.06,2.32l0.49,1.32l5.76,15.4l0.71,1.9c0.35,0.93,1.39,1.41,2.32,1.06l6.06-2.27
					C321.63,227.25,322.1,226.21,321.75,225.27z"/>
				<path class="st23" d="M361.02,165.28c3.41-3.96,9.11-5.02,13.71-2.57c-0.25-0.24-0.51-0.47-0.79-0.69l0,0
					c-4.66-3.66-11.38-3-15.25,1.48l-36.67,42.54l-6.63,2.23l0.99,2.64l7.44-2.51L361.02,165.28z"/>
			</g>
			<g>
				<path class="st9" d="M269.52,239.42c1.08-1.97,3.54-2.69,5.51-1.61l0.01,0.01c-0.08-0.05-0.15-0.12-0.24-0.16l-9.08-4.97
					c-1.97-1.08-4.43-0.36-5.51,1.61c-1.08,1.97-0.36,4.43,1.61,5.51l9.06,4.97C269.11,243.62,268.49,241.3,269.52,239.42z"/>
				<path class="st12" d="M272.85,245.28c1.43,0,2.83-0.76,3.56-2.11c1.03-1.88,0.4-4.2-1.37-5.35l-0.01-0.01
					c-1.97-1.08-4.43-0.36-5.51,1.61c-1.03,1.88-0.4,4.2,1.37,5.35l0.02,0.01C271.52,245.12,272.19,245.28,272.85,245.28z"/>
			</g>
		</g>
	</g>
	<g>
		<path class="st2" d="M527.31,439.07c1.86-6.05,2.83-8.63,15.27-9.68c3.4-0.29,6.83,0.85,10.22,0.46c3.39-0.38,7.01-2.75,7.06-6.16
			c0.05-3.66-3.94-6.91-2.76-10.37c0.88-2.55,4.09-3.41,6.78-3.25c2.69,0.16,5.47,0.92,8.03,0.05c3.13-1.06,5.06-4.4,5.36-7.7
			s-0.7-6.56-1.84-9.66c-1.14-3.11-2.43-6.21-2.74-9.51c-0.64-7.01,3.39-13.74,8.66-18.4c7.27-6.43,17.14-9.82,26.82-9.21
			c9.47,0.59,21.09,4.15,26.51,12.48c3.18,4.89,4.33,11.05,3.14,16.76c-0.5,2.41-1.41,4.89-0.74,7.26c0.97,3.47,4.77,5.17,8.12,6.49
			c3.35,1.32,7.12,3.2,7.85,6.73c0.66,3.2-1.66,6.36-4.48,7.99s-6.13,2.17-9.24,3.16c-3.11,0.99-6.28,2.68-7.66,5.64
			c-1.18,2.53-0.83,5.54-1.86,8.13c-1.73,4.39-7.06,6.46-11.74,5.91c-4.68-0.56-8.84-3.14-12.77-5.76c-1.95-1.3-3.92-2.64-6.15-3.36
			s-4.81-0.72-6.78,0.55c-2.46,1.59-3.75,4.97-6.62,5.57c-2.78,0.58-5.19-1.79-7.3-3.69c-2.11-1.9-5.5-3.48-7.57-1.55
			c-0.91,0.85-1.23,2.13-1.79,3.25c-2.19,4.39-7.88,5.84-12.75,5.3c-4.88-0.55-9.5-2.55-14.38-3.05
			C537.09,432.95,528.52,435.13,527.31,439.07z"/>
		<path class="st2" d="M647.07,426.22c4.2-1.37,9.14-0.12,12.17,3.1c1.94,2.05,3.04,5.37,1.42,7.68c-1.36,1.94-4.11,2.38-6.43,1.9
			c-2.32-0.48-4.42-1.67-6.68-2.38c-2.26-0.71-4.92-0.88-6.81,0.55c-0.47,0.35-0.88,0.8-1.41,1.04c-3.32,1.51,0.35-4.79,0.77-5.65
			C641.54,429.57,643.98,427.23,647.07,426.22z"/>
		<path class="st2" d="M679.69,391.38c2.13-0.5,4.69,0.1,5.82,1.97c1.33,2.2,0.12,5.23-1.97,6.71c-2.6,1.84-11.7,3.81-13.61-0.17
			C668.41,396.72,676.97,392.02,679.69,391.38z"/>
		<path class="st2" d="M648.77,385.85c0.48,0.88,1.45,1.41,2.43,1.59c0.98,0.19,2,0.08,2.99-0.03c1.76-0.19,3.57-0.4,5.1-1.3
			c1.53-0.89,2.69-2.66,2.31-4.38C660.17,375.16,645.6,380,648.77,385.85z"/>
		<path class="st2" d="M563.17,350.46c-1.57,0.7-2.96,2.2-2.87,3.92c0.07,1.28,0.96,2.41,2.07,3.05c1.11,0.64,2.42,0.85,3.7,0.92
			c1.6,0.09,3.36-0.08,4.55-1.15c0.77-0.69,1.2-1.67,1.78-2.52c1.05-1.53,2.64-2.67,4.41-3.18c1.05-0.3,2.64-0.6,2.68-1.97
			c0.03-1.38-1.82-2.35-2.98-2.6c-1.08-0.24-2.05,0.15-3.04,0.58c-1.51,0.65-2.99,1.29-4.6,1.67
			C566.98,349.61,564.97,349.66,563.17,350.46z"/>
	</g>
	<g>
		<linearGradient id="SVGID_1_" gradientUnits="userSpaceOnUse" x1="336.0009" y1="94.9815" x2="484.1097" y2="94.9815">
			<stop  offset="0" style="stop-color:#7FCBD0;stop-opacity:0"/>
			<stop  offset="0.5443" style="stop-color:#7FCBD0"/>
			<stop  offset="0.9884" style="stop-color:#7FCBD0;stop-opacity:0"/>
		</linearGradient>
		<rect x="336" y="93.52" class="st24" width="148.11" height="2.92"/>
		<linearGradient id="SVGID_2_" gradientUnits="userSpaceOnUse" x1="353.5013" y1="100.7914" x2="501.6101" y2="100.7914">
			<stop  offset="0" style="stop-color:#7FCBD0;stop-opacity:0"/>
			<stop  offset="0.5443" style="stop-color:#7FCBD0"/>
			<stop  offset="0.9884" style="stop-color:#7FCBD0;stop-opacity:0"/>
		</linearGradient>
		<rect x="353.5" y="99.33" class="st25" width="148.11" height="2.92"/>
		<linearGradient id="SVGID_3_" gradientUnits="userSpaceOnUse" x1="232.5962" y1="321.7545" x2="380.705" y2="321.7545">
			<stop  offset="0" style="stop-color:#7FCBD0;stop-opacity:0"/>
			<stop  offset="0.5443" style="stop-color:#7FCBD0"/>
			<stop  offset="0.9884" style="stop-color:#7FCBD0;stop-opacity:0"/>
		</linearGradient>
		<rect x="232.6" y="320.3" class="st26" width="148.11" height="2.92"/>
		<linearGradient id="SVGID_4_" gradientUnits="userSpaceOnUse" x1="250.0966" y1="327.5645" x2="398.2054" y2="327.5645">
			<stop  offset="0" style="stop-color:#7FCBD0;stop-opacity:0"/>
			<stop  offset="0.5443" style="stop-color:#7FCBD0"/>
			<stop  offset="0.9884" style="stop-color:#7FCBD0;stop-opacity:0"/>
		</linearGradient>
		<rect x="250.1" y="326.11" class="st27" width="148.11" height="2.92"/>
		<linearGradient id="SVGID_5_" gradientUnits="userSpaceOnUse" x1="355.4316" y1="164.2221" x2="503.5404" y2="164.2221">
			<stop  offset="0" style="stop-color:#7FCBD0;stop-opacity:0"/>
			<stop  offset="0.5443" style="stop-color:#7FCBD0"/>
			<stop  offset="0.9884" style="stop-color:#7FCBD0;stop-opacity:0"/>
		</linearGradient>
		<rect x="355.43" y="162.76" class="st28" width="148.11" height="2.92"/>
		<linearGradient id="SVGID_6_" gradientUnits="userSpaceOnUse" x1="363.6405" y1="158.4578" x2="566.8922" y2="158.4578">
			<stop  offset="0" style="stop-color:#7FCBD0;stop-opacity:0"/>
			<stop  offset="0.5443" style="stop-color:#7FCBD0"/>
			<stop  offset="0.9884" style="stop-color:#7FCBD0;stop-opacity:0"/>
		</linearGradient>
		<rect x="363.64" y="157" class="st29" width="203.25" height="2.92"/>
		<linearGradient id="SVGID_7_" gradientUnits="userSpaceOnUse" x1="340.9439" y1="152.0885" x2="544.1957" y2="152.0885">
			<stop  offset="0" style="stop-color:#7FCBD0;stop-opacity:0"/>
			<stop  offset="0.5443" style="stop-color:#7FCBD0"/>
			<stop  offset="0.9884" style="stop-color:#7FCBD0;stop-opacity:0"/>
		</linearGradient>
		<rect x="340.94" y="150.63" class="st30" width="203.25" height="2.92"/>
		<linearGradient id="SVGID_8_" gradientUnits="userSpaceOnUse" x1="251.6736" y1="233.0984" x2="399.7824" y2="233.0984">
			<stop  offset="0" style="stop-color:#7FCBD0;stop-opacity:0"/>
			<stop  offset="0.5443" style="stop-color:#7FCBD0"/>
			<stop  offset="0.9884" style="stop-color:#7FCBD0;stop-opacity:0"/>
		</linearGradient>
		<rect x="251.67" y="231.64" class="st31" width="148.11" height="2.92"/>
		<linearGradient id="SVGID_9_" gradientUnits="userSpaceOnUse" x1="259.8824" y1="227.3342" x2="463.1342" y2="227.3342">
			<stop  offset="0" style="stop-color:#7FCBD0;stop-opacity:0"/>
			<stop  offset="0.5443" style="stop-color:#7FCBD0"/>
			<stop  offset="0.9884" style="stop-color:#7FCBD0;stop-opacity:0"/>
		</linearGradient>
		<rect x="259.88" y="225.88" class="st32" width="203.25" height="2.92"/>
		<linearGradient id="SVGID_10_" gradientUnits="userSpaceOnUse" x1="237.1859" y1="220.9649" x2="440.4376" y2="220.9649">
			<stop  offset="0" style="stop-color:#7FCBD0;stop-opacity:0"/>
			<stop  offset="0.5443" style="stop-color:#7FCBD0"/>
			<stop  offset="0.9884" style="stop-color:#7FCBD0;stop-opacity:0"/>
		</linearGradient>
		<rect x="237.19" y="219.51" class="st33" width="203.25" height="2.92"/>
		<linearGradient id="SVGID_11_" gradientUnits="userSpaceOnUse" x1="485.4048" y1="320.558" x2="633.5136" y2="320.558">
			<stop  offset="0" style="stop-color:#7FCBD0;stop-opacity:0"/>
			<stop  offset="0.5443" style="stop-color:#7FCBD0"/>
			<stop  offset="0.9884" style="stop-color:#7FCBD0;stop-opacity:0"/>
		</linearGradient>
		<rect x="485.4" y="319.1" class="st34" width="148.11" height="2.92"/>
		<linearGradient id="SVGID_12_" gradientUnits="userSpaceOnUse" x1="450.5638" y1="314.7938" x2="653.8155" y2="314.7938">
			<stop  offset="0" style="stop-color:#7FCBD0;stop-opacity:0"/>
			<stop  offset="0.5443" style="stop-color:#7FCBD0"/>
			<stop  offset="0.9884" style="stop-color:#7FCBD0;stop-opacity:0"/>
		</linearGradient>
		<rect x="450.56" y="313.34" class="st35" width="203.25" height="2.92"/>
		<linearGradient id="SVGID_13_" gradientUnits="userSpaceOnUse" x1="427.8672" y1="308.4245" x2="631.119" y2="308.4245">
			<stop  offset="0" style="stop-color:#7FCBD0;stop-opacity:0"/>
			<stop  offset="0.5443" style="stop-color:#7FCBD0"/>
			<stop  offset="0.9884" style="stop-color:#7FCBD0;stop-opacity:0"/>
		</linearGradient>
		<rect x="427.87" y="306.97" class="st36" width="203.25" height="2.92"/>
	</g>
	<g>
		<path class="st11" d="M510.72,231.63c0.4,0.08,0.71,0.15,1.08,0.23c0.15-0.51,0.29-1,0.46-1.57c-0.23-0.08-0.42-0.16-0.62-0.21
			c-1.57-0.4-3.15-0.8-4.72-1.18c-1.69-0.41-2.27-1.07-2.55-2.76c-0.43-2.71-0.14-5.36,0.6-7.97c0.16-0.58,0.3-1.17,0.53-1.72
			c0.22-0.53,0.48-1.07,0.82-1.52c0.41-0.55,0.99-0.79,1.71-0.57c0.36,0.11,0.75,0.13,1.12,0.2c1.36,0.27,2.51,0.93,3.46,1.94
			c0.7,0.75,1.41,1.48,2.09,2.26c0.37,0.42,0.81,0.63,1.35,0.68c1.14,0.11,2.27,0.25,3.41,0.38c0.47,0.05,0.91,0.18,1.24,0.54
			c0.24,0.26,0.52,0.35,0.87,0.32c0.9-0.07,1.49,0.35,1.85,1.15c0.25,0.55,0.53,1.08,0.78,1.63c0.12,0.27,0.29,0.33,0.57,0.31
			c1.72-0.09,2.82,0.83,3.04,2.54c0.09,0.67-0.08,1.27-0.55,1.78c-0.12,0.13-0.23,0.26-0.32,0.52c0.22-0.02,0.44-0.01,0.65-0.06
			c2.71-0.63,5.19-0.11,7.41,1.54c0.7,0.52,1.25,1.24,1.85,1.88c0.12,0.12,0.17,0.3,0.28,0.49c-0.69,0.19-1.28,0.09-1.81-0.27
			c-2.2-1.48-4.63-1.76-7.09-1.07c-3.39,0.96-6.03,3.77-6.07,7.64c-0.01,0.58-0.05,1.16-0.13,1.74c-0.16,1.21-0.99,1.92-2.23,1.93
			c-3.03,0.01-6.07,0.02-9.1,0.01c-0.91,0-1.17-0.31-1.07-1.24c0.14-1.33,0.18-2.68-0.28-3.94c-1.14-3.15-3.14-5.5-6.58-6.23
			c-1.43-0.3-2.88-0.1-4.3,0.24c-1.49,0.36-2.92,0.87-4.2,1.74c-0.08,0.05-0.18,0.08-0.3,0.14c-0.36-0.66-0.63-1.32-0.66-2.05
			c-0.01-0.2,0.14-0.46,0.3-0.59c0.37-0.3,0.79-0.55,1.21-0.79c0.23-0.13,0.3-0.27,0.26-0.53c-0.27-1.72-0.52-3.45-0.78-5.17
			c-0.03-0.23-0.04-0.47-0.07-0.77c2.37-0.35,4.7-0.69,7.1-1.04c0.25,1.68,0.49,3.3,0.75,4.98c0.28-0.02,0.53-0.01,0.78-0.06
			c0.3-0.06,0.46,0.07,0.56,0.32c0.05,0.11,0.08,0.22,0.13,0.34c0.4,1.09,1.19,1.74,2.29,2.03c1.43,0.38,2.87,0.73,4.31,1.1
			C510.51,230.97,510.87,231.07,510.72,231.63z M514.23,239.26c0.2-0.38,0.41-0.68,0.52-1.01c0.95-2.75,1.9-5.49,2.82-8.25
			c0.38-1.14,0.22-2.21-0.45-3.21c-0.11-0.16-0.2-0.33-0.3-0.49c0.76-0.8,1.8-0.98,2.72-0.5c0.18,0.09,0.36,0.25,0.54,0.25
			c0.86-0.03,1.7,0.09,2.6,0.42c-0.42-0.88-0.78-1.66-1.18-2.42c-0.21-0.4-0.57-0.61-1.04-0.59c-0.26,0.01-0.52,0.02-0.78,0.02
			c-0.44,0.01-0.85-0.09-1.14-0.44c-0.24-0.28-0.51-0.35-0.85-0.33c-0.84,0.05-1.68,0.08-2.52,0.14c-0.68,0.05-1.25-0.19-1.77-0.61
			c-0.6-0.5-1.21-0.99-1.83-1.48c-0.16-0.13-0.35-0.23-0.57-0.38c-0.2,0.83-0.38,1.57-0.54,2.31c-0.1,0.46-0.34,1.03-0.17,1.38
			c0.17,0.36,0.76,0.53,1.18,0.75c1.31,0.7,2.63,1.38,3.93,2.08c0.99,0.54,1.34,1.27,1.1,2.35c-0.16,0.74-0.39,1.47-0.63,2.19
			c-0.71,2.09-1.45,4.16-2.18,6.24c-0.12,0.33-0.28,0.65-0.43,0.99C513.6,238.87,513.87,239.04,514.23,239.26z"/>
		<path class="st11" d="M476.11,222.06c0.19-0.02,0.32-0.06,0.46-0.06c2.37,0.02,4.74,0.02,7.1,0.08c1.21,0.03,2.38,0.35,3.47,0.89
			c1.45,0.72,2.4,1.84,2.73,3.45c0.35,1.74,0.2,3.39-0.76,4.92c-0.46,0.73-1.06,1.31-1.78,1.76c-0.18,0.11-0.37,0.23-0.54,0.34
			c0.69,0.4,1.39,0.75,2.02,1.19c2.03,1.44,2.73,3.43,2.35,5.85c-0.36,2.27-1.73,3.74-3.79,4.61c-1.33,0.56-2.72,0.8-4.17,0.78
			c-2.13-0.03-4.26-0.01-6.38-0.01c-0.22,0-0.43,0-0.7,0C476.11,237.92,476.11,230.02,476.11,222.06z M479.33,242.9
			c1.56,0,3.05,0.06,4.53-0.03c0.7-0.04,1.41-0.29,2.08-0.55c0.83-0.33,1.49-0.9,1.75-1.79c0.57-1.96,0.04-3.6-1.92-4.4
			c-0.66-0.27-1.39-0.44-2.09-0.49c-1.32-0.08-2.65-0.04-3.97-0.05c-0.11,0-0.23,0.05-0.37,0.08
			C479.33,238.09,479.33,240.47,479.33,242.9z M479.34,225.13c0,2.47,0,4.86,0,7.24c0.1,0.04,0.16,0.07,0.21,0.07
			c1.34,0,2.69,0.05,4.03-0.02c1.26-0.06,2.18-0.72,2.72-1.88c1.17-2.49,0.01-4.87-2.67-5.3c-1.16-0.18-2.36-0.09-3.54-0.12
			C479.86,225.13,479.62,225.13,479.34,225.13z"/>
		<path class="st11" d="M552.32,220.31c1,0,1.94,0,2.98,0c0,1.63,0.01,3.24,0.01,4.86c0,1.61,0,3.21,0,4.82c0,1.62,0,3.25,0,5.01
			c0.16-0.23,0.25-0.35,0.33-0.47c1.17-1.81,2.84-2.73,4.98-2.79c0.59-0.02,1.21,0.02,1.79,0.18c1.8,0.48,2.95,1.96,2.98,3.92
			c0.05,3.19,0.01,6.39,0.01,9.58c0,0.14-0.04,0.27-0.06,0.44c-1,0-1.97,0-3.03,0c-0.01-0.23-0.03-0.46-0.03-0.7
			c0-2.63,0-5.26,0-7.89c0-0.3,0.01-0.61-0.05-0.9c-0.23-1.24-1.09-1.98-2.4-2.04c-1.27-0.06-2.31,0.44-3.12,1.41
			c-0.81,0.97-1.25,2.11-1.27,3.37c-0.04,1.99-0.02,3.98-0.02,5.96c0,0.24,0,0.47,0,0.76c-1.05,0-2.04,0-3.08,0
			C552.32,237.34,552.32,228.86,552.32,220.31z"/>
		<path class="st11" d="M500.22,231.69c2.84-0.01,4.97,0.88,6.47,3c2.81,3.97,1.12,10.58-4.96,11.46c-1.4,0.2-2.77,0.11-4.1-0.33
			c-3.37-1.12-5.11-4.13-4.77-7.68C493.24,234.25,496.68,231.54,500.22,231.69z M495.94,238.98c0.06,0.44,0.09,0.88,0.19,1.3
			c0.46,1.97,2.14,3.36,4.12,3.43c2.06,0.08,3.77-1.15,4.38-3.16c0.27-0.9,0.29-1.81,0.12-2.73c-0.36-1.85-1.81-3.3-3.66-3.6
			c-1.78-0.29-3.51,0.57-4.45,2.22C496.19,237.22,495.96,238.07,495.94,238.98z"/>
		<path class="st11" d="M530.72,231.67c1.65,0.01,3.19,0.39,4.53,1.38c2.2,1.61,3.09,3.85,2.9,6.51c-0.24,3.3-2.43,5.79-5.67,6.48
			c-1.98,0.43-3.93,0.26-5.74-0.69c-2.23-1.17-3.44-3.05-3.68-5.57c-0.18-1.94,0.22-3.72,1.44-5.26c1.37-1.74,3.19-2.64,5.38-2.81
			C530.15,231.69,530.43,231.68,530.72,231.67z M535.08,239.12c-0.08-0.59-0.11-1.03-0.21-1.46c-0.42-1.85-1.91-3.23-3.72-3.45
			c-1.84-0.23-3.52,0.67-4.42,2.38c-0.58,1.11-0.71,2.28-0.48,3.5c0.36,1.89,1.96,3.42,3.8,3.6c2.14,0.21,3.89-0.81,4.62-2.78
			C534.89,240.3,534.97,239.63,535.08,239.12z"/>
		<path class="st11" d="M539.27,244.22c0.34-0.47,0.63-0.87,0.92-1.27c0.1-0.14,0.23-0.27,0.36-0.42c0.33,0.24,0.63,0.47,0.94,0.69
			c1.03,0.71,2.17,1.01,3.42,0.82c1.03-0.16,1.65-0.67,1.77-1.46c0.13-0.83-0.25-1.47-1.22-1.93c-0.58-0.27-1.21-0.43-1.8-0.67
			c-0.67-0.27-1.36-0.5-1.98-0.87c-2.6-1.54-2.16-4.9-0.32-6.34c0.73-0.57,1.57-0.87,2.49-0.97c1.4-0.15,2.77-0.03,4.08,0.51
			c0.49,0.21,0.94,0.51,1.48,0.81c-0.41,0.64-0.76,1.21-1.08,1.71c-0.79-0.33-1.51-0.69-2.26-0.92c-0.7-0.22-1.43-0.15-2.11,0.19
			c-1.21,0.6-1.32,2.02-0.19,2.76c0.33,0.22,0.71,0.37,1.08,0.52c0.5,0.19,1.03,0.33,1.54,0.53c0.45,0.17,0.89,0.36,1.32,0.57
			c1.97,0.98,2.41,2.55,1.84,4.54c-0.42,1.47-1.44,2.42-2.87,2.85c-2.36,0.71-4.6,0.38-6.66-1.02
			C539.77,244.67,539.56,244.46,539.27,244.22z"/>
		<path class="st11" d="M514.71,210.83c-0.47-0.18-0.92-0.35-1.37-0.52c-0.5-0.19-0.59-0.17-0.91,0.27
			c-0.12,0.16-0.23,0.34-0.29,0.52c-0.26,0.77,0.29,1.46,1.12,1.42c0.75-0.04,0.83-0.02,1.43,0.37c-0.23,0.49-0.44,1-0.71,1.48
			c-0.25,0.43-0.54,0.5-1.09,0.33c-0.96-0.3-1.9-0.66-2.87-0.9c-1.05-0.26-2.12-0.41-3.19-0.59c-0.41-0.07-0.72-0.24-0.87-0.63
			c-1.1-2.81,0.75-5.75,3.2-6.12c1.92-0.29,4.66,0.31,5.76,2.95C515.14,209.9,515.13,210.35,514.71,210.83z"/>
		<path class="st11" d="M572.01,232.23c0,4.58,0,9.07,0,13.6c-1.01,0-2,0-3.05,0c-0.01-0.2-0.04-0.39-0.04-0.59
			c0-4.11,0-8.23,0-12.34c0-0.67,0.01-0.67,0.67-0.67C570.36,232.23,571.14,232.23,572.01,232.23z"/>
		<path class="st11" d="M493.41,222.87c-0.12-0.81-0.23-1.52-0.35-2.32c2.82-0.53,5.64-0.94,8.55-1.29c0.12,0.8,0.23,1.54,0.35,2.35
			C499.1,222.03,496.3,222.44,493.41,222.87z"/>
		<path class="st11" d="M570.6,225.43c0.98,0,1.82,0.79,1.81,1.71c-0.01,0.93-0.85,1.7-1.83,1.68c-1-0.01-1.82-0.79-1.82-1.7
			C568.77,226.22,569.62,225.43,570.6,225.43z"/>
	</g>
</g>
</svg>
